<?xml version="1.0" encoding="UTF-8" standalone="no"?>
<!DOCTYPE svg PUBLIC "-//W3C//DTD SVG 1.1//EN" "http://www.w3.org/Graphics/SVG/1.1/DTD/svg11.dtd">
<svg version="1.1" xmlns="http://www.w3.org/2000/svg" xmlns:xlink="http://www.w3.org/1999/xlink" preserveAspectRatio="xMidYMid meet" viewBox="0 0 28 28" width="28" height="28"><defs><path d="M26 14C26 20.62 20.62 26 14 26C7.38 26 2 20.62 2 14C2 7.38 7.38 2 14 2C20.62 2 26 7.38 26 14Z" id="aQY3KziWr"></path><path d="M14 6.06C14.47 6.06 14.86 6.44 14.86 6.92C14.86 8.49 14.86 12.35 14.86 13.92C14.86 14.39 14.47 14.77 14 14.77C13.71 14.77 13.71 14.77 13.43 14.77C12.96 14.77 12.57 14.39 12.57 13.92C12.57 12.35 12.57 8.49 12.57 6.92C12.57 6.44 12.96 6.06 13.43 6.06C13.71 6.06 13.71 6.06 14 6.06Z" id="b2RYriu72G"></path><path d="M13.4 12.89C13.67 12.62 14.1 12.61 14.38 12.88C15.28 13.76 17.5 15.92 18.4 16.8C18.67 17.07 18.68 17.5 18.41 17.77C18.19 18 18 18.2 17.78 18.43C17.51 18.7 17.07 18.7 16.8 18.44C15.9 17.56 13.68 15.39 12.78 14.51C12.51 14.25 12.5 13.81 12.77 13.54C12.99 13.31 13.18 13.12 13.4 12.89Z" id="b1arVZ5OLR"></path></defs><g><g><g><use xlink:href="#aQY3KziWr" opacity="1" fill="#ffffff" fill-opacity="1"></use><g><use xlink:href="#aQY3KziWr" opacity="1" fill-opacity="0" stroke="#177ff9" stroke-width="4" stroke-opacity="1"></use></g></g><g><use xlink:href="#b2RYriu72G" opacity="1" fill="#177ff9" fill-opacity="1"></use></g><g><use xlink:href="#b1arVZ5OLR" opacity="1" fill="#177ff9" fill-opacity="1"></use></g></g></g></svg>