<?xml version="1.0" encoding="UTF-8" standalone="no"?>
<!DOCTYPE svg PUBLIC "-//W3C//DTD SVG 1.1//EN" "http://www.w3.org/Graphics/SVG/1.1/DTD/svg11.dtd">
<svg version="1.1" xmlns="http://www.w3.org/2000/svg" xmlns:xlink="http://www.w3.org/1999/xlink" preserveAspectRatio="xMidYMid meet" viewBox="0 0 32 32" width="32" height="32"><defs><path d="M30 16C30 23.73 23.73 30 16 30C8.27 30 2 23.73 2 16C2 8.27 8.27 2 16 2C23.73 2 30 8.27 30 16Z" id="bE3fPgHkd"></path><path d="M16 6.74C16.55 6.74 17 7.19 17 7.74C17 9.57 17 14.07 17 15.9C17 16.46 16.55 16.9 16 16.9C15.67 16.9 15.67 16.9 15.33 16.9C14.78 16.9 14.33 16.46 14.33 15.9C14.33 14.07 14.33 9.57 14.33 7.74C14.33 7.19 14.78 6.74 15.33 6.74C15.67 6.74 15.67 6.74 16 6.74Z" id="i1hzAAFUUp"></path><path d="M15.3 14.7C15.61 14.39 16.12 14.38 16.44 14.69C17.49 15.72 20.08 18.24 21.13 19.27C21.45 19.58 21.46 20.09 21.15 20.4C20.89 20.67 20.67 20.9 20.41 21.16C20.1 21.48 19.59 21.49 19.27 21.18C18.22 20.15 15.63 17.63 14.58 16.6C14.26 16.29 14.25 15.78 14.56 15.46C14.82 15.2 15.04 14.97 15.3 14.7Z" id="gjQf4cduc"></path></defs><g><g><g><use xlink:href="#bE3fPgHkd" opacity="1" fill="#ffffff" fill-opacity="1"></use><g><use xlink:href="#bE3fPgHkd" opacity="1" fill-opacity="0" stroke="#000000" stroke-width="4" stroke-opacity="1"></use></g></g><g><use xlink:href="#i1hzAAFUUp" opacity="1" fill="#000000" fill-opacity="1"></use></g><g><use xlink:href="#gjQf4cduc" opacity="1" fill="#000000" fill-opacity="1"></use></g></g></g></svg>